<svg id="_1271343" data-name="1271343" xmlns="http://www.w3.org/2000/svg" width="134.688" height="134.689" viewBox="0 0 134.688 134.689">
  <path id="Path_1" data-name="Path 1" d="M134.281,66.069,124.166,52.115l1.793-17.137a2.173,2.173,0,0,0-1.278-2.212l-15.744-7.006L101.93,10.016a2.186,2.186,0,0,0-2.212-1.279l-17.14,1.792L68.626.414a2.172,2.172,0,0,0-2.55,0L52.122,10.528,34.983,8.736a2.2,2.2,0,0,0-2.212,1.277L25.766,27.177l-15.745,5.59a2.171,2.171,0,0,0-1.277,2.209L13.4,52.115.421,66.069a2.172,2.172,0,0,0,0,2.55L10.535,82.572,8.744,99.712a2.172,2.172,0,0,0,1.277,2.212l15.745,7.006,7.006,15.745a2.2,2.2,0,0,0,2.212,1.279l17.139-1.793,13.954,10.115a2.172,2.172,0,0,0,2.55,0l13.953-10.115,17.14,1.793a2.185,2.185,0,0,0,2.212-1.277l7.006-15.745,15.744-7.008a2.174,2.174,0,0,0,1.278-2.209l-1.793-17.14,10.115-13.953a2.172,2.172,0,0,0,0-2.552Z" transform="translate(-0.008 0)" fill="#037ce6"/>
  <path id="Path_2" data-name="Path 2" d="M167.754,155.427a1.56,1.56,0,0,0-2.215,0l-25.476,25.622-18.891-18.985a1.56,1.56,0,0,0-2.212,0l-4.441,4.44a1.581,1.581,0,0,0,0,2.231l24.432,24.572a1.561,1.561,0,0,0,2.215,0l31.017-31.2a1.583,1.583,0,0,0,0-2.228Z" transform="translate(-75.373 -105.186)" fill="#fff"/>
</svg>
