<svg xmlns="http://www.w3.org/2000/svg" viewBox="0 0 1214.5 1721.3">
  <path d="M966.3 469.1C798.5 206.9 607.5 0 607.5 0S462.4 157.2 314.1 371.1c9.7.4 19.5.9 29.4 1.4 147.7 8.1 302.8 28.7 467.3 61.8 53.3 10.8 105.1 22.4 155.5 34.8m248.2 621.9c-99.2-49.4-222.1-105.3-368.7-167.9-251.9-107.1-400.4-172.1-444-194-80.6-41.5-134.6-75.5-160.9-102.2-26.2-26.7-36-50.8-28.5-71.9 12.5-35.2 70.9-54.8 174.5-59.7 103.6-4.7 230.4 7.9 380.3 38.1 103.8 20.9 198.5 46.7 284 77.4 88.6 160.3 156.9 330.2 163.3 480.2M53.4 1363.4c116.2 35.8 242.2 67.4 377.7 94.7 226.7 45.7 432.6 70.1 617.6 73.4-110.7 116.9-267.4 189.8-441.2 189.8-246.7 0-458.9-146.8-554.1-357.9M0 1113.8c0 36.7 3.2 72.6 9.5 107.5 124.3 58.1 263.9 102.9 418.8 134.1 124.2 25 243.4 40.7 357.6 47.5 114.2 6.7 204.6 2.8 270.3-11.5 66.5-14.1 104.5-35.6 114.7-64.5 11.6-32.6-18.9-73.1-91.6-121.6-100.2-66.6-292.2-161.5-577.9-284.5-175.8-76-309.9-136.6-402.5-182C39.8 867.5 0 997.3 0 1113.8" fill="#ffecef"/>
</svg>
