<?xml version="1.0" encoding="utf-8"?>
<!-- Generator: Adobe Illustrator 19.0.0, SVG Export Plug-In . SVG Version: 6.00 Build 0)  -->
<svg version="1.1" id="Layer_1" xmlns="http://www.w3.org/2000/svg" xmlns:xlink="http://www.w3.org/1999/xlink" x="0px" y="0px"
	 viewBox="0 0 15.5 15.5" style="enable-background:new 0 0 15.5 15.5;" xml:space="preserve">
<style type="text/css">
	.st0{fill:#FFFFFF;}
</style>
<g id="s2Dj2m.tif_2_">
	<g>
		<path class="st0" d="M15.5,7.3c0,0.3,0,0.6,0,0.9c0,0,0,0.1,0,0.1c-0.1,1.1-0.4,2.1-0.9,3.1c-1.2,2.2-3,3.5-5.5,4
			c-0.3,0.1-0.6,0.1-0.9,0.1c-0.3,0-0.6,0-0.9,0c0,0-0.1,0-0.1,0c-1.1-0.1-2.1-0.4-3.1-0.9C1.6,13.2,0.2,11,0,8.1
			c-0.1-1.5,0.3-3,1.1-4.3C2.5,1.5,4.7,0.2,7.4,0c1.4-0.1,2.7,0.2,4,0.9c2.2,1.2,3.5,3,4,5.5C15.5,6.7,15.5,7,15.5,7.3z M9.9,3.1
			c-0.6,0-1.2,0-1.8,0.1C7.3,3.2,6.9,3.7,6.8,4.5C6.8,5,6.8,5.5,6.8,6c0,0.1,0,0.1,0,0.2c-0.4,0-0.8,0-1.2,0c0,0.5,0,1.1,0,1.6
			c0.4,0,0.8,0,1.2,0c0,1.6,0,3.1,0,4.6c0.6,0,1.2,0,1.7,0c0-1.6,0-3.1,0-4.7c0.4,0,0.8,0,1.3,0c0.1-0.5,0.1-1.1,0.2-1.6
			c-0.5,0-1,0-1.4,0c0-0.4,0-0.7,0-1c0-0.3,0.1-0.4,0.4-0.4c0.3,0,0.5,0,0.8,0c0.1,0,0.2,0,0.2,0C9.9,4.2,9.9,3.7,9.9,3.1z"/>
	</g>
</g>
</svg>
