<svg id="_535285" data-name="535285" xmlns="http://www.w3.org/2000/svg" width="139.03" height="122.826" viewBox="0 0 139.03 122.826">
  <g id="Group_1" data-name="Group 1" transform="translate(0 0)">
    <path id="Path_3" data-name="Path 3" d="M128.886,41.9A35.229,35.229,0,0,0,102.1,29.836c-14.649,0-23.924,8.749-29.124,16.089a53.306,53.306,0,0,0-3.461,5.611,53.261,53.261,0,0,0-3.461-5.611c-5.2-7.34-14.475-16.089-29.124-16.089A35.231,35.231,0,0,0,10.143,41.9,42.142,42.142,0,0,0,0,69.893c0,11.569,4.517,22.328,14.214,33.861,8.667,10.308,21.135,20.933,35.573,33.236,5.38,4.585,10.944,9.326,16.867,14.508l.178.156a4.074,4.074,0,0,0,5.366,0l.178-.156c5.923-5.182,11.487-9.923,16.868-14.509,14.437-12.3,26.906-22.927,35.573-33.235,9.7-11.533,14.214-22.293,14.214-33.861A42.142,42.142,0,0,0,128.886,41.9ZM83.959,130.79c-4.638,3.952-9.411,8.019-14.444,12.395-5.033-4.375-9.806-8.443-14.445-12.4C26.813,106.71,8.146,90.8,8.146,69.893a34.011,34.011,0,0,1,8.109-22.6A27.19,27.19,0,0,1,36.93,37.982c11.168,0,18.388,6.88,22.477,12.652a48.291,48.291,0,0,1,6.235,12.4,4.073,4.073,0,0,0,7.745,0,48.3,48.3,0,0,1,6.235-12.4c4.089-5.772,11.309-12.652,22.477-12.652a27.189,27.189,0,0,1,20.674,9.306,34.01,34.01,0,0,1,8.109,22.6C130.883,90.8,112.216,106.71,83.959,130.79Z" transform="translate(0 -29.836)"/>
  </g>
</svg>
