<svg id="_54761" data-name="54761" xmlns="http://www.w3.org/2000/svg" width="127.692" height="127.692" viewBox="0 0 127.692 127.692">
  <g id="_x32__26_">
    <g id="Group_2" data-name="Group 2">
      <path id="Path_4" data-name="Path 4" d="M63.846,0c35.259,0,63.846,25.012,63.846,55.865,0,17.634-9.357,33.332-23.942,43.571v28.256L75.781,110.721a73.217,73.217,0,0,1-11.935,1.01C28.583,111.731,0,86.719,0,55.865S28.583,0,63.846,0Zm0,103.75a64.575,64.575,0,0,0,13.488-1.465l18.787,11.293-.251-18.507c14.4-8.663,23.842-22.98,23.842-39.206,0-26.444-25.012-47.885-55.865-47.885S7.981,29.421,7.981,55.865,32.992,103.75,63.846,103.75Z"/>
    </g>
  </g>
</svg>
