<?xml version="1.0" encoding="utf-8"?>
<!-- Generator: Adobe Illustrator 19.0.0, SVG Export Plug-In . SVG Version: 6.00 Build 0)  -->
<svg version="1.1" id="Layer_1" xmlns="http://www.w3.org/2000/svg" xmlns:xlink="http://www.w3.org/1999/xlink" x="0px" y="0px"
	 viewBox="0 0 21.8 15.5" style="enable-background:new 0 0 21.8 15.5;" xml:space="preserve">
<style type="text/css">
	.st0{fill:#FFFFFF;}
</style>
<g id="v4Tceo.tif_2_">
	<g>
		<path class="st0" d="M10.7,0c2.7,0.1,5.2,0.2,7.7,0.4c0.9,0,1.7,0.2,2.3,0.9c0.5,0.5,0.7,1.2,0.8,1.9c0.4,3.3,0.5,6.5-0.1,9.8
			c-0.2,1.2-1.1,2.1-2.4,2.2c-2,0.2-4,0.3-6.1,0.4c-2.9,0-5.8-0.1-8.7-0.2c-0.5,0-1.1-0.1-1.6-0.2c-1.2-0.2-2-0.9-2.2-2.1
			C0.2,11.6,0,10.1,0,8.6C0,6.7,0.1,4.9,0.3,3C0.5,1.5,1.4,0.6,3,0.5C5.6,0.2,8.3,0.1,10.7,0z M14.4,7.8c-1.9-1.1-3.8-2.2-5.7-3.3
			c0,2.3,0,4.4,0,6.7C10.6,10,12.5,9,14.4,7.8z"/>
	</g>
</g>
</svg>
