<!-- Generated by IcoMoon.io -->
<svg version="1.1" xmlns="http://www.w3.org/2000/svg" width="1024" height="1024" viewBox="0 0 1024 1024">
<title></title>
<g id="icomoon-ignore">
</g>
<path d="M11.817 551.385c-7.877-7.877-11.815-19.692-11.815-27.569s3.938-19.692 11.815-27.569l55.138-55.138c15.754-15.754 39.385-15.754 55.138 0l3.938 3.938 216.615 232.369c7.877 7.877 19.692 7.877 27.569 0l527.754-547.446h3.938c15.754-15.754 39.385-15.754 55.138 0l55.138 55.138c15.754 15.754 15.754 39.385 0 55.138v0l-630.154 653.785c-7.877 7.877-15.754 11.815-27.569 11.815s-19.692-3.938-27.569-11.815l-307.2-330.831-7.877-11.815z"></path>
</svg>
