<?xml version="1.0" encoding="utf-8"?>
<!-- Generated by IcoMoon.io -->
<!DOCTYPE svg PUBLIC "-//W3C//DTD SVG 1.1//EN" "http://www.w3.org/Graphics/SVG/1.1/DTD/svg11.dtd">
<svg version="1.1" xmlns="http://www.w3.org/2000/svg" xmlns:xlink="http://www.w3.org/1999/xlink" width="1621" height="1024" viewBox="0 0 1621 1024">
<g id="icomoon-ignore">
</g>
<path d="M0 85.544v852.911c0 46.653 38.005 85.544 84.887 85.544h1451.559c46.408 0 84.887-38.3 84.887-85.544v-852.911c0-46.653-38.005-85.544-84.887-85.544h-1451.559c-46.408 0-84.887 38.3-84.887 85.544zM85.333 128.823c0-24.019 18.342-43.49 41.851-43.49h1366.964c23.114 0 41.851 19.426 41.851 43.49v766.353c0 24.019-18.342 43.49-41.851 43.49h-1366.964c-23.114 0-41.851-19.426-41.851-43.49v-766.353zM85.333 256h1450.667v85.333h-1450.667v-85.333zM85.333 426.667h1450.667v85.333h-1450.667v-85.333z"></path>
</svg>
