<?xml version="1.0" encoding="utf-8"?>
<!-- Generated by IcoMoon.io -->
<!DOCTYPE svg PUBLIC "-//W3C//DTD SVG 1.1//EN" "http://www.w3.org/Graphics/SVG/1.1/DTD/svg11.dtd">
<svg version="1.1" xmlns="http://www.w3.org/2000/svg" xmlns:xlink="http://www.w3.org/1999/xlink" width="1024" height="1024" viewBox="0 0 1024 1024">
<g id="icomoon-ignore">
</g>
<path d="M436.827 719.598l271.598-271.598 45.255 45.255-271.598 271.598 0.192 0.192-45.255 45.255-181.019-181.019 45.255-45.255 135.572 135.572zM832 64v-64h-64v64h-128v-64h-64v64h-128v-64h-64v64h-128v-64h-64v64h-127.944c-35.599 0-64.056 28.868-64.056 64.479v831.042c0 35.748 28.679 64.479 64.056 64.479h895.888c35.599 0 64.056-28.868 64.056-64.479v-831.042c0-35.748-28.679-64.479-64.056-64.479h-127.944zM768 128v64h64v-64h128v192h-896v-192h128v64h64v-64h128v64h64v-64h128v64h64v-64h128zM64 384h896v576h-896v-576z"></path>
</svg>
