<?xml version="1.0" encoding="utf-8"?>
<!-- Generated by IcoMoon.io -->
<!DOCTYPE svg PUBLIC "-//W3C//DTD SVG 1.1//EN" "http://www.w3.org/Graphics/SVG/1.1/DTD/svg11.dtd">
<svg version="1.1" xmlns="http://www.w3.org/2000/svg" xmlns:xlink="http://www.w3.org/1999/xlink" width="768" height="1024" viewBox="0 0 768 1024">
<g id="icomoon-ignore">
</g>
<path d="M660.834 741.12h-14.413v-269.799c0-144.072-117.209-261.281-261.281-261.281s-261.281 117.209-261.281 261.281v269.799h-14.413c-58.771 0-106.584 47.812-106.584 106.584v139.993c0 19.368 15.7 35.068 35.068 35.068h694.426c19.368 0 35.068-15.7 35.068-35.068v-139.993c-0.007-58.768-47.819-106.584-106.591-106.584v0zM193.992 471.324c0-105.398 85.749-191.144 191.144-191.144s191.144 85.749 191.144 191.144v269.799h-382.289v-269.799zM697.281 952.629h-624.289v-104.925c0-20.098 16.349-36.447 36.447-36.447h551.392c20.098 0 36.447 16.349 36.447 36.447v104.925h0.004zM385.136 140.27c19.368 0 35.068-15.7 35.068-35.068v-70.133c0-19.368-15.7-35.068-35.068-35.068s-35.068 15.7-35.068 35.068v70.133c0 19.368 15.7 35.068 35.068 35.068zM72.753 249.123c6.849 6.849 15.823 10.272 24.797 10.272s17.952-3.423 24.797-10.272c13.694-13.694 13.694-35.9 0-49.597l-49.587-49.59c-13.694-13.694-35.9-13.694-49.597 0-13.694 13.694-13.694 35.9 0 49.597l49.59 49.59zM672.722 259.391c8.974 0 17.952-3.423 24.797-10.272l49.59-49.59c13.694-13.694 13.694-35.9 0-49.597-13.694-13.694-35.9-13.694-49.597 0l-49.587 49.594c-13.694 13.694-13.694 35.9 0 49.597 6.845 6.845 15.823 10.268 24.797 10.268zM385.136 318.517c-84.259 0-152.811 68.548-152.811 152.811 0 19.368 15.7 35.068 35.068 35.068s35.068-15.7 35.068-35.068c0-45.586 37.088-82.674 82.674-82.674 19.368 0 35.068-15.7 35.068-35.068s-15.7-35.068-35.068-35.068z"></path>
</svg>
