<!-- Generated by IcoMoon.io -->
<svg version="1.1" xmlns="http://www.w3.org/2000/svg" width="1024" height="1024" viewBox="0 0 1024 1024">
<title></title>
<g id="icomoon-ignore">
</g>
<path fill="#000" d="M1001.239 889.852l-211.077-211.068c50.868-73.43 76.314-155.291 76.314-245.538 0-58.666-11.389-114.773-34.168-168.309-22.763-53.545-53.536-99.696-92.305-138.466s-84.914-69.542-138.448-92.308c-53.551-22.772-109.654-34.157-168.32-34.157-58.662 0-114.769 11.385-168.305 34.157-53.545 22.765-99.696 53.538-138.466 92.308-38.774 38.769-69.542 84.93-92.31 138.466-22.77 53.542-34.155 109.643-34.155 168.309 0 58.662 11.385 114.75 34.155 168.301 22.765 53.536 53.536 99.681 92.31 138.45 38.769 38.782 84.93 69.542 138.466 92.32 53.542 22.768 109.643 34.15 168.305 34.15 90.266 0 172.114-25.449 245.548-76.312l211.077 210.456c14.769 15.586 33.206 23.384 55.379 23.384 21.332 0 39.804-7.796 55.381-23.384 15.584-15.584 23.382-34.047 23.382-55.379 0.006-21.731-7.583-40.201-22.763-55.381zM628.006 627.995c-53.948 53.956-118.866 80.933-194.771 80.933-75.892 0-140.811-26.984-194.763-80.933s-80.927-118.858-80.927-194.763c0-75.892 26.981-140.821 80.927-194.763 53.941-53.954 118.871-80.927 194.763-80.927 75.896 0 140.815 26.984 194.771 80.927 53.956 53.941 80.931 118.871 80.931 194.763 0 75.905-26.984 140.815-80.931 194.763z"></path>
</svg>
