<!-- Generated by IcoMoon.io -->
<svg version="1.1" xmlns="http://www.w3.org/2000/svg" width="1126" height="1024" viewBox="0 0 1126 1024">
<title></title>
<g id="icomoon-ignore">
</g>
<path d="M573.948 718.291c-31.225 0-57.399 26.174-57.399 57.399s26.174 57.399 57.399 57.399c30.077 0 57.399-26.174 56.022-56.022 1.378-32.832-24.567-58.777-56.022-58.777z"></path>
<path d="M1094.272 922.402c36.047-62.221 36.276-136.38 0.459-198.371l-359.548-622.665c-35.587-62.68-99.874-99.874-171.968-99.874s-136.38 37.424-171.968 99.645l-360.007 623.354c-35.817 62.68-35.587 137.299 0.689 199.519 35.817 61.532 99.874 98.497 171.509 98.497h718.178c71.864 0 136.38-37.424 172.657-100.104zM1016.209 877.401c-19.975 34.439-55.333 54.874-94.823 54.874h-718.178c-39.031 0-74.16-19.975-93.675-53.726-19.745-34.21-19.975-75.078-0.23-109.517l360.007-623.125c19.516-34.21 54.414-54.414 93.905-54.414 39.261 0 74.389 20.434 93.905 54.644l359.778 623.125c19.286 33.521 19.057 73.93-0.689 108.14z"></path>
<path d="M560.861 310.311c-27.322 7.806-44.312 32.603-44.312 62.68 1.378 18.138 2.526 36.506 3.903 54.644 3.903 69.109 7.806 136.839 11.709 205.948 1.378 23.419 19.516 40.409 42.935 40.409s41.787-18.138 42.935-41.787c0-14.235 0-27.322 1.378-41.787 2.526-44.312 5.281-88.624 7.806-132.936 1.378-28.7 3.903-57.399 5.281-86.099 0-10.332-1.378-19.516-5.281-28.7-11.709-25.715-39.031-38.802-66.353-32.373z"></path>
</svg>
