<?xml version="1.0" encoding="UTF-8"?><!DOCTYPE svg PUBLIC "-//W3C//DTD SVG 1.1//EN" "http://www.w3.org/Graphics/SVG/1.1/DTD/svg11.dtd"><svg xmlns="http://www.w3.org/2000/svg" xmlns:xlink="http://www.w3.org/1999/xlink"><symbol id="arrows" viewBox="0 0 89.5 41.5">
  <style>
    .st0{fill:#fff}.st1{fill:none;stroke:#dd0050;stroke-width:2;stroke-linecap:round;stroke-linejoin:round;stroke-miterlimit:10}
  </style>
  <g id="XMLID_54_">
    <g id="XMLID_76_">
      <g id="XMLID_80_">
        <circle id="XMLID_82_" class="st0" fill="#fff" cx="20.7" cy="20.7" r="20.7"/>
        <path id="XMLID_81_" class="st1" fill="#fff" stroke-width="2" stroke-linecap="round" stroke-linejoin="round" stroke-miterlimit="10" stroke="#dd0050" d="M24.3 30.1L15 20.7l9.3-9.3"/>
      </g>
      <g id="XMLID_77_">
        <circle id="XMLID_79_" class="st0" fill="#fff" cx="68.8" cy="20.7" r="20.7"/>
        <path id="XMLID_78_" class="st1" fill="#fff" stroke-width="2" stroke-linecap="round" stroke-linejoin="round" stroke-miterlimit="10" stroke="#dd0050" d="M65.2 11.4l9.3 9.3-9.3 9.4"/>
      </g>
    </g>
  </g>
</symbol><symbol id="bookmark" viewBox="0 0 333.086 333.087">
<g>
	<g>
		<path d="M284.662,333.087c-3.614,0-7.136-1.57-9.559-4.441l-108.56-128.714L57.983,328.646c-3.384,4.014-8.916,5.481-13.845,3.683
			c-4.93-1.802-8.21-6.492-8.21-11.741V12.5c0-6.903,5.597-12.5,12.5-12.5h236.23c6.902,0,12.5,5.597,12.5,12.5v308.086
			c0,5.249-3.28,9.939-8.21,11.741C287.546,332.839,286.096,333.087,284.662,333.087z M166.543,168.043
			c3.684,0,7.18,1.625,9.555,4.441l96.061,113.893V25H60.928v261.377l96.06-113.893
			C159.363,169.668,162.859,168.043,166.543,168.043z"/>
	</g>
</g>
<g>
</g>
<g>
</g>
<g>
</g>
<g>
</g>
<g>
</g>
<g>
</g>
<g>
</g>
<g>
</g>
<g>
</g>
<g>
</g>
<g>
</g>
<g>
</g>
<g>
</g>
<g>
</g>
<g>
</g>
</symbol><symbol id="check" viewBox="0 0 134.688 134.689">
  <path id="Path_1" data-name="Path 1" d="M134.281,66.069,124.166,52.115l1.793-17.137a2.173,2.173,0,0,0-1.278-2.212l-15.744-7.006L101.93,10.016a2.186,2.186,0,0,0-2.212-1.279l-17.14,1.792L68.626.414a2.172,2.172,0,0,0-2.55,0L52.122,10.528,34.983,8.736a2.2,2.2,0,0,0-2.212,1.277L25.766,27.177l-15.745,5.59a2.171,2.171,0,0,0-1.277,2.209L13.4,52.115.421,66.069a2.172,2.172,0,0,0,0,2.55L10.535,82.572,8.744,99.712a2.172,2.172,0,0,0,1.277,2.212l15.745,7.006,7.006,15.745a2.2,2.2,0,0,0,2.212,1.279l17.139-1.793,13.954,10.115a2.172,2.172,0,0,0,2.55,0l13.953-10.115,17.14,1.793a2.185,2.185,0,0,0,2.212-1.277l7.006-15.745,15.744-7.008a2.174,2.174,0,0,0,1.278-2.209l-1.793-17.14,10.115-13.953a2.172,2.172,0,0,0,0-2.552Z" transform="translate(-0.008 0)" fill="#037ce6"/>
  <path id="Path_2" data-name="Path 2" d="M167.754,155.427a1.56,1.56,0,0,0-2.215,0l-25.476,25.622-18.891-18.985a1.56,1.56,0,0,0-2.212,0l-4.441,4.44a1.581,1.581,0,0,0,0,2.231l24.432,24.572a1.561,1.561,0,0,0,2.215,0l31.017-31.2a1.583,1.583,0,0,0,0-2.228Z" transform="translate(-75.373 -105.186)" fill="#fff"/>
</symbol><symbol id="drop" viewBox="0 0 1214.5 1721.3">
  <path d="M966.3 469.1C798.5 206.9 607.5 0 607.5 0S462.4 157.2 314.1 371.1c9.7.4 19.5.9 29.4 1.4 147.7 8.1 302.8 28.7 467.3 61.8 53.3 10.8 105.1 22.4 155.5 34.8m248.2 621.9c-99.2-49.4-222.1-105.3-368.7-167.9-251.9-107.1-400.4-172.1-444-194-80.6-41.5-134.6-75.5-160.9-102.2-26.2-26.7-36-50.8-28.5-71.9 12.5-35.2 70.9-54.8 174.5-59.7 103.6-4.7 230.4 7.9 380.3 38.1 103.8 20.9 198.5 46.7 284 77.4 88.6 160.3 156.9 330.2 163.3 480.2M53.4 1363.4c116.2 35.8 242.2 67.4 377.7 94.7 226.7 45.7 432.6 70.1 617.6 73.4-110.7 116.9-267.4 189.8-441.2 189.8-246.7 0-458.9-146.8-554.1-357.9M0 1113.8c0 36.7 3.2 72.6 9.5 107.5 124.3 58.1 263.9 102.9 418.8 134.1 124.2 25 243.4 40.7 357.6 47.5 114.2 6.7 204.6 2.8 270.3-11.5 66.5-14.1 104.5-35.6 114.7-64.5 11.6-32.6-18.9-73.1-91.6-121.6-100.2-66.6-292.2-161.5-577.9-284.5-175.8-76-309.9-136.6-402.5-182C39.8 867.5 0 997.3 0 1113.8" fill="#ffecef"/>
</symbol><symbol id="facebook" viewBox="0 0 15.5 15.5">
<style type="text/css">
	.st0{fill:#FFFFFF;}
</style>
<g id="s2Dj2m.tif_2_">
	<g>
		<path class="st0" d="M15.5,7.3c0,0.3,0,0.6,0,0.9c0,0,0,0.1,0,0.1c-0.1,1.1-0.4,2.1-0.9,3.1c-1.2,2.2-3,3.5-5.5,4
			c-0.3,0.1-0.6,0.1-0.9,0.1c-0.3,0-0.6,0-0.9,0c0,0-0.1,0-0.1,0c-1.1-0.1-2.1-0.4-3.1-0.9C1.6,13.2,0.2,11,0,8.1
			c-0.1-1.5,0.3-3,1.1-4.3C2.5,1.5,4.7,0.2,7.4,0c1.4-0.1,2.7,0.2,4,0.9c2.2,1.2,3.5,3,4,5.5C15.5,6.7,15.5,7,15.5,7.3z M9.9,3.1
			c-0.6,0-1.2,0-1.8,0.1C7.3,3.2,6.9,3.7,6.8,4.5C6.8,5,6.8,5.5,6.8,6c0,0.1,0,0.1,0,0.2c-0.4,0-0.8,0-1.2,0c0,0.5,0,1.1,0,1.6
			c0.4,0,0.8,0,1.2,0c0,1.6,0,3.1,0,4.6c0.6,0,1.2,0,1.7,0c0-1.6,0-3.1,0-4.7c0.4,0,0.8,0,1.3,0c0.1-0.5,0.1-1.1,0.2-1.6
			c-0.5,0-1,0-1.4,0c0-0.4,0-0.7,0-1c0-0.3,0.1-0.4,0.4-0.4c0.3,0,0.5,0,0.8,0c0.1,0,0.2,0,0.2,0C9.9,4.2,9.9,3.7,9.9,3.1z"/>
	</g>
</g>
</symbol><symbol id="heart" viewBox="0 0 139.03 122.826">
  <g id="Group_1" data-name="Group 1" transform="translate(0 0)">
    <path id="Path_3" data-name="Path 3" d="M128.886,41.9A35.229,35.229,0,0,0,102.1,29.836c-14.649,0-23.924,8.749-29.124,16.089a53.306,53.306,0,0,0-3.461,5.611,53.261,53.261,0,0,0-3.461-5.611c-5.2-7.34-14.475-16.089-29.124-16.089A35.231,35.231,0,0,0,10.143,41.9,42.142,42.142,0,0,0,0,69.893c0,11.569,4.517,22.328,14.214,33.861,8.667,10.308,21.135,20.933,35.573,33.236,5.38,4.585,10.944,9.326,16.867,14.508l.178.156a4.074,4.074,0,0,0,5.366,0l.178-.156c5.923-5.182,11.487-9.923,16.868-14.509,14.437-12.3,26.906-22.927,35.573-33.235,9.7-11.533,14.214-22.293,14.214-33.861A42.142,42.142,0,0,0,128.886,41.9ZM83.959,130.79c-4.638,3.952-9.411,8.019-14.444,12.395-5.033-4.375-9.806-8.443-14.445-12.4C26.813,106.71,8.146,90.8,8.146,69.893a34.011,34.011,0,0,1,8.109-22.6A27.19,27.19,0,0,1,36.93,37.982c11.168,0,18.388,6.88,22.477,12.652a48.291,48.291,0,0,1,6.235,12.4,4.073,4.073,0,0,0,7.745,0,48.3,48.3,0,0,1,6.235-12.4c4.089-5.772,11.309-12.652,22.477-12.652a27.189,27.189,0,0,1,20.674,9.306,34.01,34.01,0,0,1,8.109,22.6C130.883,90.8,112.216,106.71,83.959,130.79Z" transform="translate(0 -29.836)"/>
  </g>
</symbol><symbol id="message" viewBox="0 0 127.692 127.692">
  <g id="_x32__26_">
    <g id="Group_2" data-name="Group 2">
      <path id="Path_4" data-name="Path 4" d="M63.846,0c35.259,0,63.846,25.012,63.846,55.865,0,17.634-9.357,33.332-23.942,43.571v28.256L75.781,110.721a73.217,73.217,0,0,1-11.935,1.01C28.583,111.731,0,86.719,0,55.865S28.583,0,63.846,0Zm0,103.75a64.575,64.575,0,0,0,13.488-1.465l18.787,11.293-.251-18.507c14.4-8.663,23.842-22.98,23.842-39.206,0-26.444-25.012-47.885-55.865-47.885S7.981,29.421,7.981,55.865,32.992,103.75,63.846,103.75Z"/>
    </g>
  </g>
</symbol><symbol id="plane" viewBox="0 0 138.638 138.639">
  <g id="Path_5" data-name="Path 5" transform="translate(0.798 0.8)">
    <path d="M 92.37464904785156 137.4390869140625 C 91.02629852294922 137.4390869140625 89.80851745605469 136.6392059326172 89.27219390869141 135.4013061523438 L 62.86953735351563 74.27954864501953 L 1.771663904190063 50.80277633666992 C 0.447209358215332 50.29519653320313 -0.4247724413871765 49.00083160400391 -0.3978088200092316 47.58208465576172 C -0.3707906305789948 46.1614875793457 0.5493184328079224 44.90332412719727 1.891791224479675 44.45133972167969 L 132.9997406005859 -0.2445503771305084 C 133.1000671386719 -0.2799867391586304 133.1966705322266 -0.2893503904342651 133.2672119140625 -0.2962049245834351 C 133.2981719970703 -0.2992049157619476 133.3274078369141 -0.3020412921905518 133.3441314697266 -0.3059685528278351 C 133.5113983154297 -0.3462594747543335 133.6957550048828 -0.3854958415031433 133.8966674804688 -0.3964594602584839 C 133.9440612792969 -0.3988776504993439 133.9913024902344 -0.4000594615936279 134.0385589599609 -0.4000594615936279 C 134.1741790771484 -0.4000594615936279 134.3166809082031 -0.3906413018703461 134.4870300292969 -0.3704412877559662 C 134.6404113769531 -0.3520413041114807 134.8058929443359 -0.3286776542663574 134.9804840087891 -0.2823867499828339 L 134.9854583740234 -0.2810594737529755 L 134.9904327392578 -0.2796049416065216 C 135.1668701171875 -0.2278776615858078 135.3452453613281 -0.1565685570240021 135.5518341064453 -0.05516856536269188 C 135.5621795654297 -0.05016856268048286 135.5880279541016 -0.04180492833256721 135.6130523681641 -0.03369583562016487 C 135.6741333007813 -0.01391757186502218 135.7577819824219 0.01317555643618107 135.8448791503906 0.06598308682441711 C 135.9141693115234 0.1075287237763405 135.9616241455078 0.1551275998353958 135.9932708740234 0.1868314296007156 C 135.998046875 0.1916437894105911 136.0027465820313 0.1966282576322556 136.0078125 0.201330378651619 C 136.1795196533203 0.3225925862789154 136.3221740722656 0.4583559334278107 136.4391174316406 0.5753223299980164 C 136.5704040527344 0.7066055536270142 136.6977081298828 0.837543249130249 136.8114776611328 0.9943802356719971 C 136.8153228759766 0.9983155727386475 136.8220825195313 1.004460692405701 136.8285675048828 1.010813236236572 C 136.8629608154297 1.044395089149475 136.9148864746094 1.09514057636261 136.9594421386719 1.16810417175293 C 137.0117340087891 1.254231452941895 137.0399017333984 1.336922287940979 137.0604400634766 1.397304177284241 C 137.0696868896484 1.424431443214417 137.0784149169922 1.450031399726868 137.0856018066406 1.464958667755127 C 137.1581878662109 1.612867832183838 137.2420806884766 1.79506778717041 137.3053588867188 2.007249593734741 C 137.3634948730469 2.196158647537231 137.3904113769531 2.37832236289978 137.4109802246094 2.533976793289185 C 137.4356842041016 2.728049516677856 137.4444274902344 2.909104108810425 137.43798828125 3.089376926422119 C 137.4303894042969 3.305724143981934 137.393798828125 3.501995325088501 137.3622436523438 3.649967908859253 C 137.3594512939453 3.666776657104492 137.3576354980469 3.69182300567627 137.355712890625 3.718231439590454 C 137.3507843017578 3.785704135894775 137.3440704345703 3.878122329711914 137.3116455078125 3.978595018386841 L 95.59552001953125 135.0864562988281 C 95.16847991943359 136.4213562011719 93.942138671875 137.3651580810547 92.54375457763672 137.4355926513672 C 92.48473358154297 137.4390869140625 92.42877197265625 137.4390869140625 92.37464904785156 137.4390869140625 Z M 69.41971588134766 72.40052032470703 L 91.89161682128906 124.4235992431641 L 126.6561584472656 15.16117858886719 L 69.41971588134766 72.40052032470703 Z M 12.89819145202637 47.83564376831055 L 64.56974029541016 67.68939208984375 L 121.4206619262695 10.83848476409912 L 12.89819145202637 47.83564376831055 Z" stroke="none"/>
    <path d="M 134.0385894775391 -6.103515625e-05 C 133.9987487792969 -6.103515625e-05 133.9587707519531 0.000885009765625 133.9184417724609 0.0029449462890625 C 133.7545471191406 0.0118865966796875 133.5966339111328 0.0446624755859375 133.4357299804688 0.0833892822265625 C 133.3344116210938 0.10723876953125 133.2301330566406 0.0982818603515625 133.1288146972656 0.1340484619140625 L 2.019424438476563 44.83042907714844 C 0.8334808349609375 45.22972106933594 0.0259552001953125 46.33521270751953 0.0021209716796875 47.58968353271484 C -0.0217132568359375 48.84417724609375 0.7411041259765625 49.97944641113281 1.915130615234375 50.42939758300781 L 63.17002868652344 73.96650695800781 L 89.63922882080078 135.2422637939453 C 90.11300659179688 136.3358459472656 91.19168090820313 137.0390625 92.37464904785156 137.0390625 C 92.42530059814453 137.0390625 92.47297668457031 137.0390625 92.52362823486328 137.0361022949219 C 93.76618957519531 136.9735260009766 94.83592224121094 136.1481170654297 95.21435546875 134.9651794433594 L 136.9309692382813 3.85577392578125 C 136.9607696533203 3.763397216796875 136.9518280029297 3.668045043945313 136.9696960449219 3.57269287109375 C 137.0054779052734 3.405838012695313 137.0322875976563 3.244918823242188 137.0382232666016 3.0750732421875 C 137.0442047119141 2.908187866210938 137.0352783203125 2.750274658203125 137.014404296875 2.586395263671875 C 136.9935302734375 2.428466796875 136.9696960449219 2.2764892578125 136.9220428466797 2.121536254882813 C 136.8713684082031 1.951705932617188 136.8028411865234 1.7967529296875 136.7253723144531 1.638809204101563 C 136.6836395263672 1.552413940429688 136.6687316894531 1.460037231445313 136.6181030273438 1.376602172851563 C 136.5853118896484 1.322952270507813 136.5316772460938 1.287216186523438 136.4929504394531 1.236557006835938 C 136.3946228027344 1.0994873046875 136.2784118652344 0.9803009033203125 136.15625 0.858123779296875 C 136.0340576171875 0.7359619140625 135.9118957519531 0.6227264404296875 135.7718505859375 0.5243988037109375 C 135.7212066650391 0.4886474609375 135.6884155273438 0.43798828125 135.6377716064453 0.408172607421875 C 135.5543365478516 0.3575286865234375 135.4619750976563 0.345611572265625 135.3755493164063 0.3038787841796875 C 135.2116394042969 0.22344970703125 135.0507354736328 0.1549072265625 134.8779144287109 0.104248046875 C 134.7319183349609 0.065521240234375 134.5888824462891 0.0446624755859375 134.4398956298828 0.0267791748046875 C 134.3044281005859 0.010711669921875 134.1724548339844 -6.103515625e-05 134.0385894775391 -6.103515625e-05 M 64.66883087158203 68.15597534179688 L 11.72447967529297 47.81317901611328 L 122.9201354980469 9.904670715332031 L 64.66883087158203 68.15597534179688 M 91.94851684570313 125.5640106201172 L 68.94479370117188 72.30976104736328 L 127.5357894897461 13.71579742431641 L 91.94851684570313 125.5640106201172 M 134.0385894775391 -0.8000640869140625 C 134.1903228759766 -0.8000640869140625 134.3477935791016 -0.789764404296875 134.5341491699219 -0.7676544189453125 C 134.7026672363281 -0.7474212646484375 134.8848876953125 -0.7215728759765625 135.0830230712891 -0.66900634765625 L 135.0930328369141 -0.666351318359375 L 135.1029357910156 -0.6634521484375 C 135.2970275878906 -0.6065673828125 135.4909515380859 -0.529754638671875 135.7119140625 -0.422149658203125 C 135.7200469970703 -0.4193572998046875 135.7282409667969 -0.416839599609375 135.7363891601563 -0.4141998291015625 C 135.8058929443359 -0.391693115234375 135.9213409423828 -0.3542938232421875 136.0457611083984 -0.2799835205078125 C 136.1520538330078 -0.2170257568359375 136.2247619628906 -0.147247314453125 136.2671966552734 -0.1049041748046875 C 136.4498138427734 0.027496337890625 136.5991058349609 0.16961669921875 136.7218780517578 0.292388916015625 C 136.8518981933594 0.42242431640625 136.988525390625 0.5628204345703125 137.113525390625 0.730010986328125 C 137.1572570800781 0.772796630859375 137.2330017089844 0.8486328125 137.3007049560547 0.9593963623046875 C 137.3763122558594 1.083984375 137.4140777587891 1.19488525390625 137.4390563964844 1.268280029296875 C 137.4424743652344 1.278305053710938 137.4456939697266 1.288436889648438 137.4494323730469 1.298416137695313 C 137.5225524902344 1.447845458984375 137.6165466308594 1.652587890625 137.6872863769531 1.88824462890625 C 137.7518310546875 2.0987548828125 137.7832336425781 2.297805786132813 137.8075256347656 2.481582641601563 C 137.8352508544922 2.69921875 137.8449554443359 2.901504516601563 137.8377227783203 3.103729248046875 C 137.829345703125 3.34259033203125 137.7910614013672 3.554916381835938 137.7569122314453 3.71697998046875 C 137.7559356689453 3.727066040039063 137.7554016113281 3.737136840820313 137.7546691894531 3.747177124023438 C 137.7486267089844 3.829971313476563 137.7395324707031 3.955093383789063 137.6923370361328 4.10137939453125 L 95.97669982910156 135.2077331542969 C 95.49942779541016 136.6995849609375 94.13018798828125 137.7544097900391 92.56819152832031 137.8348693847656 C 92.49509429931641 137.8390655517578 92.43114471435547 137.8390655517578 92.37464904785156 137.8390655517578 C 90.86673736572266 137.8390655517578 89.5048828125 136.9445953369141 88.9051513671875 135.560302734375 L 62.56902313232422 74.59259033203125 L 1.628189086914063 51.17615509033203 C 0.14727783203125 50.60861206054688 -0.827880859375 49.16110229492188 -0.7977294921875 47.57448577880859 C -0.7675323486328125 45.98545074462891 0.2620086669921875 44.57801055908203 1.76416015625 44.07225036621094 L 132.8706665039063 -0.6231536865234375 C 133.0163879394531 -0.673736572265625 133.1438598632813 -0.6861114501953125 133.2285919189453 -0.6943359375 C 133.2398376464844 -0.6954345703125 133.2511138916016 -0.6962890625 133.2623291015625 -0.6977081298828125 C 133.4352874755859 -0.739105224609375 133.6458740234375 -0.7833709716796875 133.8748474121094 -0.7958831787109375 C 133.9303131103516 -0.7986907958984375 133.9844207763672 -0.8000640869140625 134.0385894775391 -0.8000640869140625 Z M 64.47062683105469 67.22279357910156 L 119.921142578125 11.77228546142578 L 14.07191467285156 47.85810089111328 L 64.47062683105469 67.22279357910156 Z M 91.834716796875 123.2831268310547 L 125.776496887207 16.6065673828125 L 69.89463806152344 72.49125671386719 L 91.834716796875 123.2831268310547 Z" stroke="none"/>
  </g>
</symbol><symbol id="tree dots" viewBox="0 0 187 45">
  <circle id="Ellipse_1" data-name="Ellipse 1" cx="22.5" cy="22.5" r="22.5" fill="#383838"/>
  <circle id="Ellipse_2" data-name="Ellipse 2" cx="22.5" cy="22.5" r="22.5" transform="translate(71)" fill="#383838"/>
  <circle id="Ellipse_3" data-name="Ellipse 3" cx="22.5" cy="22.5" r="22.5" transform="translate(142)" fill="#383838"/>
</symbol><symbol id="youtube" viewBox="0 0 21.8 15.5">
<style type="text/css">
	.st0{fill:#FFFFFF;}
</style>
<g id="v4Tceo.tif_2_">
	<g>
		<path class="st0" d="M10.7,0c2.7,0.1,5.2,0.2,7.7,0.4c0.9,0,1.7,0.2,2.3,0.9c0.5,0.5,0.7,1.2,0.8,1.9c0.4,3.3,0.5,6.5-0.1,9.8
			c-0.2,1.2-1.1,2.1-2.4,2.2c-2,0.2-4,0.3-6.1,0.4c-2.9,0-5.8-0.1-8.7-0.2c-0.5,0-1.1-0.1-1.6-0.2c-1.2-0.2-2-0.9-2.2-2.1
			C0.2,11.6,0,10.1,0,8.6C0,6.7,0.1,4.9,0.3,3C0.5,1.5,1.4,0.6,3,0.5C5.6,0.2,8.3,0.1,10.7,0z M14.4,7.8c-1.9-1.1-3.8-2.2-5.7-3.3
			c0,2.3,0,4.4,0,6.7C10.6,10,12.5,9,14.4,7.8z"/>
	</g>
</g>
</symbol></svg>