<svg xmlns="http://www.w3.org/2000/svg"><symbol id="arrows" viewBox="0 0 89.5 41.5"><style>.st0{fill:#fff}.st1{fill:none;stroke:#dd0050;stroke-width:2;stroke-linecap:round;stroke-linejoin:round;stroke-miterlimit:10}</style><g id="XMLID_54_"><g id="XMLID_76_"><g id="XMLID_80_"><circle id="XMLID_82_" class="st0" fill="#fff" cx="20.7" cy="20.7" r="20.7"/><path id="XMLID_81_" class="st1" fill="#fff" stroke-width="2" stroke-linecap="round" stroke-linejoin="round" stroke-miterlimit="10" stroke="#dd0050" d="M24.3 30.1L15 20.7l9.3-9.3"/></g><g id="XMLID_77_"><circle id="XMLID_79_" class="st0" fill="#fff" cx="68.8" cy="20.7" r="20.7"/><path id="XMLID_78_" class="st1" fill="#fff" stroke-width="2" stroke-linecap="round" stroke-linejoin="round" stroke-miterlimit="10" stroke="#dd0050" d="M65.2 11.4l9.3 9.3-9.3 9.4"/></g></g></g></symbol><symbol id="bookmark" viewBox="0 0 333.086 333.087"><path d="M284.662 333.087c-3.614 0-7.136-1.57-9.559-4.441l-108.56-128.714-108.56 128.714a12.504 12.504 0 01-13.845 3.683 12.502 12.502 0 01-8.21-11.741V12.5c0-6.903 5.597-12.5 12.5-12.5h236.23c6.902 0 12.5 5.597 12.5 12.5v308.086a12.502 12.502 0 01-12.496 12.501zM166.543 168.043a12.5 12.5 0 019.555 4.441l96.061 113.893V25H60.928v261.377l96.06-113.893a12.5 12.5 0 019.555-4.441z"/></symbol><symbol id="check" viewBox="0 0 134.688 134.689"><path id="Path_1" data-name="Path 1" d="M134.281 66.069l-10.115-13.954 1.793-17.137a2.173 2.173 0 00-1.278-2.212l-15.744-7.006-7.007-15.744a2.186 2.186 0 00-2.212-1.279l-17.14 1.792L68.626.414a2.172 2.172 0 00-2.55 0L52.122 10.528 34.983 8.736a2.2 2.2 0 00-2.212 1.277l-7.005 17.164-15.745 5.59a2.171 2.171 0 00-1.277 2.209L13.4 52.115.421 66.069a2.172 2.172 0 000 2.55l10.114 13.953-1.791 17.14a2.172 2.172 0 001.277 2.212l15.745 7.006 7.006 15.745a2.2 2.2 0 002.212 1.279l17.139-1.793 13.954 10.115a2.172 2.172 0 002.55 0l13.953-10.115 17.14 1.793a2.185 2.185 0 002.212-1.277l7.006-15.745 15.744-7.008a2.174 2.174 0 001.278-2.209l-1.793-17.14 10.115-13.953a2.172 2.172 0 000-2.552z" transform="translate(-.008)" fill="#037ce6"/><path id="Path_2" data-name="Path 2" d="M167.754 155.427a1.56 1.56 0 00-2.215 0l-25.476 25.622-18.891-18.985a1.56 1.56 0 00-2.212 0l-4.441 4.44a1.581 1.581 0 000 2.231l24.432 24.572a1.561 1.561 0 002.215 0l31.017-31.2a1.583 1.583 0 000-2.228z" transform="translate(-75.373 -105.186)" fill="#fff"/></symbol><symbol id="drop" viewBox="0 0 1214.5 1721.3"><path d="M966.3 469.1C798.5 206.9 607.5 0 607.5 0S462.4 157.2 314.1 371.1c9.7.4 19.5.9 29.4 1.4 147.7 8.1 302.8 28.7 467.3 61.8 53.3 10.8 105.1 22.4 155.5 34.8m248.2 621.9c-99.2-49.4-222.1-105.3-368.7-167.9-251.9-107.1-400.4-172.1-444-194-80.6-41.5-134.6-75.5-160.9-102.2-26.2-26.7-36-50.8-28.5-71.9 12.5-35.2 70.9-54.8 174.5-59.7 103.6-4.7 230.4 7.9 380.3 38.1 103.8 20.9 198.5 46.7 284 77.4 88.6 160.3 156.9 330.2 163.3 480.2M53.4 1363.4c116.2 35.8 242.2 67.4 377.7 94.7 226.7 45.7 432.6 70.1 617.6 73.4-110.7 116.9-267.4 189.8-441.2 189.8-246.7 0-458.9-146.8-554.1-357.9M0 1113.8c0 36.7 3.2 72.6 9.5 107.5 124.3 58.1 263.9 102.9 418.8 134.1 124.2 25 243.4 40.7 357.6 47.5 114.2 6.7 204.6 2.8 270.3-11.5 66.5-14.1 104.5-35.6 114.7-64.5 11.6-32.6-18.9-73.1-91.6-121.6-100.2-66.6-292.2-161.5-577.9-284.5-175.8-76-309.9-136.6-402.5-182C39.8 867.5 0 997.3 0 1113.8" fill="#ffecef"/></symbol><symbol id="facebook" viewBox="0 0 15.5 15.5"><style>.st0{fill:#fff}</style><path class="st0" d="M15.5 7.3v1c-.1 1.1-.4 2.1-.9 3.1-1.2 2.2-3 3.5-5.5 4-.3.1-.6.1-.9.1h-.9-.1c-1.1-.1-2.1-.4-3.1-.9C1.6 13.2.2 11 0 8.1c-.1-1.5.3-3 1.1-4.3C2.5 1.5 4.7.2 7.4 0c1.4-.1 2.7.2 4 .9 2.2 1.2 3.5 3 4 5.5.1.3.1.6.1.9zM9.9 3.1c-.6 0-1.2 0-1.8.1-.8 0-1.2.5-1.3 1.3v1.7H5.6v1.6h1.2v4.6h1.7V7.7h1.3c.1-.5.1-1.1.2-1.6H8.6v-1c0-.3.1-.4.4-.4h1c-.1-.5-.1-1-.1-1.6z" id="s2Dj2m.tif_2_"/></symbol><symbol id="heart" viewBox="0 0 139.03 122.826"><g id="Group_1" data-name="Group 1"><path id="Path_3" data-name="Path 3" d="M128.886 41.9A35.229 35.229 0 00102.1 29.836c-14.649 0-23.924 8.749-29.124 16.089a53.306 53.306 0 00-3.461 5.611 53.261 53.261 0 00-3.461-5.611c-5.2-7.34-14.475-16.089-29.124-16.089A35.231 35.231 0 0010.143 41.9 42.142 42.142 0 000 69.893c0 11.569 4.517 22.328 14.214 33.861 8.667 10.308 21.135 20.933 35.573 33.236 5.38 4.585 10.944 9.326 16.867 14.508l.178.156a4.074 4.074 0 005.366 0l.178-.156c5.923-5.182 11.487-9.923 16.868-14.509 14.437-12.3 26.906-22.927 35.573-33.235 9.7-11.533 14.214-22.293 14.214-33.861A42.142 42.142 0 00128.886 41.9zm-44.927 88.89c-4.638 3.952-9.411 8.019-14.444 12.395-5.033-4.375-9.806-8.443-14.445-12.4C26.813 106.71 8.146 90.8 8.146 69.893a34.011 34.011 0 018.109-22.6 27.19 27.19 0 0120.675-9.311c11.168 0 18.388 6.88 22.477 12.652a48.291 48.291 0 016.235 12.4 4.073 4.073 0 007.745 0 48.3 48.3 0 016.235-12.4c4.089-5.772 11.309-12.652 22.477-12.652a27.189 27.189 0 0120.674 9.306 34.01 34.01 0 018.109 22.6c.001 20.912-18.666 36.822-46.923 60.902z" transform="translate(0 -29.836)"/></g></symbol><symbol id="message" viewBox="0 0 127.692 127.692"><g id="_x32__26_"><g id="Group_2" data-name="Group 2"><path id="Path_4" data-name="Path 4" d="M63.846 0c35.259 0 63.846 25.012 63.846 55.865 0 17.634-9.357 33.332-23.942 43.571v28.256l-27.969-16.971a73.217 73.217 0 01-11.935 1.01C28.583 111.731 0 86.719 0 55.865S28.583 0 63.846 0zm0 103.75a64.575 64.575 0 0013.488-1.465l18.787 11.293-.251-18.507c14.4-8.663 23.842-22.98 23.842-39.206 0-26.444-25.012-47.885-55.865-47.885S7.981 29.421 7.981 55.865s25.011 47.885 55.865 47.885z"/></g></g></symbol><symbol id="plane" viewBox="0 0 138.638 138.639"><g id="Path_5" data-name="Path 5"><path d="M92.375 137.44a3.38 3.38 0 01-3.103-2.039L62.87 74.28 1.772 50.803a3.376 3.376 0 01.12-6.351L133-.246c.1-.035.197-.044.267-.051a.726.726 0 00.077-.01c.167-.04.352-.08.553-.09a3.758 3.758 0 01.59.026c.153.018.319.041.493.088h.005l.005.002c.177.052.355.123.562.225.01.005.036.013.061.021.061.02.145.047.232.1.07.042.117.09.148.12l.015.015c.172.122.314.257.431.374.131.132.259.263.372.42l.018.016a.792.792 0 01.231.386c.01.027.018.053.026.068.072.148.156.33.22.542.057.19.084.371.105.527.025.194.033.375.027.555a3.225 3.225 0 01-.076.561c-.003.017-.004.042-.006.068-.005.068-.012.16-.044.26L95.596 135.087a3.4 3.4 0 01-3.052 2.35c-.06.003-.115.003-.17.003zM69.42 72.4l22.472 52.024L126.656 15.16 69.42 72.401zM12.898 47.837L64.57 67.689l56.85-56.85L12.899 47.835z" transform="translate(.798 .8)"/><path d="M134.039 0c-.04 0-.08 0-.12.003a2.678 2.678 0 00-.483.08c-.102.024-.206.015-.307.051L2.019 44.83a2.979 2.979 0 00-.104 5.599L63.17 73.967l26.47 61.275a2.984 2.984 0 002.735 1.797c.05 0 .098 0 .149-.003a2.981 2.981 0 002.69-2.07l41.717-131.11c.03-.093.02-.188.039-.283.035-.167.062-.328.068-.498a2.964 2.964 0 00-.024-.489 2.794 2.794 0 00-.092-.464c-.05-.17-.12-.325-.197-.483-.041-.087-.056-.179-.107-.262-.033-.054-.086-.09-.125-.14a3.092 3.092 0 00-.337-.379 2.914 2.914 0 00-.384-.334c-.05-.035-.084-.086-.134-.116-.084-.05-.176-.062-.262-.104a3.102 3.102 0 00-.498-.2 3.138 3.138 0 00-.438-.077 3.389 3.389 0 00-.401-.027m-69.37 68.156L11.724 47.813 122.92 9.905 64.67 68.156m27.28 57.408L68.945 72.31l58.59-58.594L91.95 125.564M134.039-.8c.151 0 .309.01.495.032.169.02.35.046.549.099l.01.003.01.003c.194.056.388.133.609.24l.024.009c.07.022.185.06.31.134.106.063.179.133.221.175.183.132.332.275.455.397.13.13.267.27.392.438.043.043.119.119.187.23.075.124.113.235.138.308l.01.03c.074.15.168.355.238.59.065.21.096.41.12.594.028.217.038.42.03.622a3.563 3.563 0 01-.08.613l-.002.03c-.006.083-.015.208-.063.354L95.977 135.208a3.802 3.802 0 01-3.409 2.627 3.78 3.78 0 01-3.663-2.275L62.57 74.593 1.629 51.176a3.79 3.79 0 01-2.427-3.602 3.777 3.777 0 012.562-3.502L132.871-.623c.145-.05.273-.063.358-.071l.033-.004c.173-.041.384-.085.613-.098.055-.003.11-.004.164-.004zM64.47 67.223l55.45-55.45-105.85 36.085 50.4 19.365zm27.364 56.06l33.941-106.676L69.895 72.49l21.94 50.792z" transform="translate(.798 .8)"/></g></symbol><symbol id="tree dots" viewBox="0 0 187 45"><circle id="Ellipse_1" data-name="Ellipse 1" cx="22.5" cy="22.5" r="22.5" fill="#383838"/><circle id="Ellipse_2" data-name="Ellipse 2" cx="22.5" cy="22.5" r="22.5" transform="translate(71)" fill="#383838"/><circle id="Ellipse_3" data-name="Ellipse 3" cx="22.5" cy="22.5" r="22.5" transform="translate(142)" fill="#383838"/></symbol><symbol id="youtube" viewBox="0 0 21.8 15.5"><style>.st0{fill:#fff}</style><path class="st0" d="M10.7 0c2.7.1 5.2.2 7.7.4.9 0 1.7.2 2.3.9.5.5.7 1.2.8 1.9.4 3.3.5 6.5-.1 9.8-.2 1.2-1.1 2.1-2.4 2.2-2 .2-4 .3-6.1.4-2.9 0-5.8-.1-8.7-.2-.5 0-1.1-.1-1.6-.2-1.2-.2-2-.9-2.2-2.1-.2-1.5-.4-3-.4-4.5C0 6.7.1 4.9.3 3 .5 1.5 1.4.6 3 .5 5.6.2 8.3.1 10.7 0zm3.7 7.8L8.7 4.5v6.7c1.9-1.2 3.8-2.2 5.7-3.4z" id="v4Tceo.tif_2_"/></symbol></svg>