<svg xmlns="http://www.w3.org/2000/svg" xmlns:xlink="http://www.w3.org/1999/xlink" width="1040" height="2644" viewBox="0 0 1040 2644"><svg width="1040" height="801.9047619047619" viewBox="-20 -20 1384 1064" id="arrow-left" y="0"><title></title><path stroke="#000" stroke-width="64" d="M450.793 76.97c17.38-17.988 46.306-17.988 64.294 0 17.38 17.38 17.38 46.306 0 63.647L189.079 466.625h1075.783c25.078.04 45.01 19.974 45.01 45.051s-19.934 45.659-45.01 45.659H189.079l326.008 325.401c17.38 17.988 17.38 46.957 0 64.294-17.988 17.988-46.957 17.988-64.294 0L47.606 543.843c-17.988-17.38-17.988-46.306 0-63.647L450.793 76.97z"></path></svg><svg width="1040" height="801.9047619047619" viewBox="-20 -20 1384 1064" id="arrow-right" y="802"><title></title><path stroke="#000" stroke-width="64" d="M893.207 76.97c-17.38-17.988-46.306-17.988-64.294 0-17.38 17.38-17.38 46.306 0 63.647l326.008 326.008H79.138c-25.078.04-45.01 19.974-45.01 45.051s19.934 45.659 45.01 45.659h1075.783L828.913 882.736c-17.38 17.988-17.38 46.957 0 64.294 17.988 17.988 46.957 17.988 64.294 0l403.187-403.187c17.988-17.38 17.988-46.306 0-63.647L893.207 76.97z"></path></svg><svg width="1040" height="1040" viewBox="-20 -20 1064 1064" id="checked" y="1604"><title></title><path d="M11.817 551.385C3.94 543.508.002 531.693.002 523.816s3.938-19.692 11.815-27.569l55.138-55.138c15.754-15.754 39.385-15.754 55.138 0l3.938 3.938 216.615 232.369c7.877 7.877 19.692 7.877 27.569 0L897.969 129.97h3.938c15.754-15.754 39.385-15.754 55.138 0l55.138 55.138c15.754 15.754 15.754 39.385 0 55.138L382.029 894.031c-7.877 7.877-15.754 11.815-27.569 11.815s-19.692-3.938-27.569-11.815L19.691 563.2l-7.877-11.815z"></path></svg></svg>