<?xml version="1.0" encoding="utf-8"?>
<!-- Generated by IcoMoon.io -->
<!DOCTYPE svg PUBLIC "-//W3C//DTD SVG 1.1//EN" "http://www.w3.org/Graphics/SVG/1.1/DTD/svg11.dtd">
<svg version="1.1" xmlns="http://www.w3.org/2000/svg" xmlns:xlink="http://www.w3.org/1999/xlink" width="832" height="1024" viewBox="0 0 832 1024">
<g id="icomoon-ignore">
</g>
<path d="M813.639 232.604l-232.918-223.685c-5.246-5.036-12.38-7.974-19.725-7.974h-426.177c-69.036 0-125.272 56.236-125.272 125.272v771.567c0 69.036 56.236 125.272 125.272 125.272h562.361c69.036 0 125.272-56.236 125.272-125.272v-644.616c-0.21-7.764-3.357-15.108-8.813-20.564v0 0zM589.534 95.791l134.085 129.049h-65.679c-37.77 0-68.616-30.636-68.616-68.616v-60.433h0.21zM765.586 897.784c0 37.77-30.636 68.616-68.616 68.616h-562.151c-37.77 0-68.616-30.636-68.616-68.616v-771.777c0-37.77 30.636-68.616 68.616-68.616h397.849v98.623c0 69.036 56.236 125.272 125.272 125.272h107.646v616.498zM610.098 529.102h-384.63c-15.738 0-28.328 12.59-28.328 28.328s12.59 28.328 28.328 28.328h384.63c15.738 0 28.328-12.59 28.328-28.328s-12.59-28.328-28.328-28.328v0 0zM221.901 427.752h384.63c15.738 0 28.328-12.59 28.328-28.328s-12.59-28.328-28.328-28.328h-384.63c-15.738 0-28.328 12.59-28.328 28.328s12.59 28.328 28.328 28.328v0 0zM610.098 686.899h-384.63c-15.738 0-28.328 12.59-28.328 28.328s12.59 28.328 28.328 28.328h384.63c15.738 0 28.328-12.59 28.328-28.328s-12.59-28.328-28.328-28.328v0 0z"></path>
</svg>
